<svg xmlns="http://www.w3.org/2000/svg" width="1600" height="520" viewBox="0 0 1600 520" role="img" aria-label="Sundsvallshärvan LLM Wiki hero">
  <defs>
    <linearGradient id="bg" x1="0" x2="1" y1="0" y2="1">
      <stop offset="0" stop-color="#0d2b3e"/>
      <stop offset="0.48" stop-color="#123f54"/>
      <stop offset="1" stop-color="#21332f"/>
    </linearGradient>
    <linearGradient id="water" x1="0" x2="1">
      <stop offset="0" stop-color="#4ba3c7" stop-opacity="0.42"/>
      <stop offset="1" stop-color="#7dbf9b" stop-opacity="0.32"/>
    </linearGradient>
    <linearGradient id="paper" x1="0" x2="1" y1="0" y2="1">
      <stop offset="0" stop-color="#f4f7f6"/>
      <stop offset="1" stop-color="#dbe7e6"/>
    </linearGradient>
    <filter id="shadow" x="-20%" y="-20%" width="140%" height="140%">
      <feDropShadow dx="0" dy="14" stdDeviation="16" flood-color="#06131c" flood-opacity="0.35"/>
    </filter>
  </defs>
  <rect width="1600" height="520" fill="url(#bg)"/>
  <path d="M0 386 C250 324 380 420 610 366 C850 310 1030 404 1260 350 C1398 318 1498 330 1600 286 L1600 520 L0 520 Z" fill="url(#water)"/>
  <g opacity="0.24" stroke="#c7d7cf" stroke-width="2" fill="none">
    <path d="M120 420 H1470"/>
    <path d="M190 384 H1330"/>
    <path d="M270 348 H1110"/>
    <path d="M360 314 H920"/>
  </g>
  <g transform="translate(118 95)" filter="url(#shadow)">
    <rect x="0" y="0" width="450" height="310" rx="18" fill="url(#paper)"/>
    <rect x="34" y="44" width="240" height="18" rx="9" fill="#2f6f8f"/>
    <rect x="34" y="86" width="360" height="12" rx="6" fill="#8aa0a8"/>
    <rect x="34" y="116" width="326" height="12" rx="6" fill="#b6c4c9"/>
    <rect x="34" y="158" width="150" height="44" rx="8" fill="#e8b24d"/>
    <rect x="202" y="158" width="150" height="44" rx="8" fill="#5b9e78"/>
    <rect x="34" y="226" width="350" height="12" rx="6" fill="#b6c4c9"/>
    <rect x="34" y="254" width="260" height="12" rx="6" fill="#b6c4c9"/>
  </g>
  <g transform="translate(638 112)">
    <g stroke="#dbe7e6" stroke-width="4" fill="none" opacity="0.85">
      <path d="M112 108 L260 62 L420 142 L560 82"/>
      <path d="M112 108 L288 214 L420 142"/>
      <path d="M288 214 L560 82"/>
    </g>
    <g fill="#e8b24d">
      <circle cx="112" cy="108" r="20"/>
      <circle cx="420" cy="142" r="20"/>
    </g>
    <g fill="#7dbf9b">
      <circle cx="260" cy="62" r="20"/>
      <circle cx="288" cy="214" r="20"/>
      <circle cx="560" cy="82" r="20"/>
    </g>
    <g fill="#f4f7f6" opacity="0.95">
      <rect x="70" y="142" width="110" height="28" rx="14"/>
      <rect x="212" y="18" width="110" height="28" rx="14"/>
      <rect x="238" y="248" width="130" height="28" rx="14"/>
      <rect x="372" y="176" width="128" height="28" rx="14"/>
      <rect x="508" y="116" width="108" height="28" rx="14"/>
    </g>
  </g>
  <g transform="translate(1040 260)" opacity="0.82">
    <rect x="0" y="74" width="390" height="28" fill="#223e4c"/>
    <rect x="22" y="20" width="74" height="54" fill="#d7e4e2"/>
    <rect x="118" y="0" width="82" height="74" fill="#b9d0cf"/>
    <rect x="222" y="34" width="70" height="40" fill="#e8b24d"/>
    <path d="M314 74 L374 74 L344 32 Z" fill="#7dbf9b"/>
    <rect x="36" y="102" width="320" height="14" rx="7" fill="#7dbf9b"/>
  </g>
  <text x="118" y="455" font-family="Inter, -apple-system, BlinkMacSystemFont, Segoe UI, sans-serif" font-size="32" fill="#f4f7f6" opacity="0.94">Sundsvallshärvan · källor → samband → frågor → beslut</text>
</svg>

